<?xml version="1.0" encoding="utf-8"?>
<!-- Generator: Adobe Illustrator 24.3.0, SVG Export Plug-In . SVG Version: 6.00 Build 0)  -->
<svg version="1.1" id="Layer_1" xmlns="http://www.w3.org/2000/svg" xmlns:xlink="http://www.w3.org/1999/xlink" x="0px" y="0px"
	 viewBox="0 0 210.3 48.1" style="enable-background:new 0 0 210.3 48.1;" xml:space="preserve">
<style type="text/css">
	.st0{fill:#FBB042;}
	.st1{fill:#F89521;}
	.st2{fill:#231F20;}
</style>
<g id="Layer_2_1_">
	<g id="Layer_1-2">
		<path class="st0" d="M9.8,6.5h33.7c1.8,0,3.2,1.4,3.2,3.2v33.7c0,1.8-1.4,3.2-3.2,3.2H9.8c-1.8,0-3.2-1.4-3.2-3.2V9.7
			C6.6,7.9,8,6.5,9.8,6.5z"/>
		<path class="st1" d="M46.7,43.4c0,1.8-0.8,3.2-1.8,3.2h-19c-1,0-1.8-1.4-1.8-3.2V9.7c0-1.7,0.8-3.2,1.8-3.2h19
			c1,0,1.8,1.4,1.8,3.2L46.7,43.4z"/>
		<path class="st2" d="M40.9,4c1.8,0,3.2,1.4,3.2,3.2v33.7c0,1.8-1.4,3.2-3.2,3.2H7.2c-1.8,0-3.2-1.4-3.2-3.2V7.2C4,5.4,5.4,4,7.2,4
			H40.9 M40.9,0H7.2C3.2,0,0,3.2,0,7.2v33.7c0,4,3.2,7.2,7.2,7.2h33.7c4,0,7.2-3.2,7.2-7.2V7.2C48.1,3.2,44.9,0,40.9,0z"/>
		<path class="st2" d="M13.4,14.2c-1.7,0-3.1,1.4-3.1,3.1s1.4,3.1,3.1,3.1s3.1-1.4,3.1-3.1S15.1,14.2,13.4,14.2z"/>
		<path class="st2" d="M37.7,16.9L37.7,16.9c-0.2-1.6-1.5-2.8-3.1-2.8c0,0,0,0,0,0c-0.8,0-1.6,0.3-2.2,0.9c-0.6,0.6-0.9,1.4-0.9,2.2
			c0,0.8,0.3,1.6,0.9,2.2c0.6,0.6,1.3,0.9,2.2,0.9c0,0,0,0,0,0c0.8,0,1.6-0.3,2.2-0.9c0.6-0.6,0.9-1.4,0.9-2.2L37.7,16.9z"/>
		<g>
			<path class="st2" d="M24.1,36.3c-1.3,0-2.5-0.2-3.8-0.6c-4.1-1.3-7.3-4.4-8.5-8.5c-0.3-1.1,0.3-2.2,1.3-2.5
				c1.1-0.3,2.2,0.3,2.5,1.3c0.9,2.8,3.1,5,5.9,5.9c2.3,0.7,4.7,0.5,6.8-0.6c2.1-1.1,3.6-3,4.3-5.2c0.3-1.1,1.4-1.6,2.5-1.3
				c1.1,0.3,1.6,1.4,1.3,2.5c-1,3.3-3.2,6-6.3,7.6C28.2,35.7,26.1,36.3,24.1,36.3z"/>
		</g>
		<path class="st2" d="M56.6,1.6c0,0,0,1.3,0,1.7v31.4c0,0.5,0,1.7,0,1.7h4.4c0,0,0-1.2,0-1.7V1.6L56.6,1.6z"/>
		<path class="st2" d="M67.4,13.8c-0.9,1.1-1.6,2.3-2,3.6c-0.4,1.4-0.7,2.9-0.7,4.4v3.6c0,1.4,0.2,2.9,0.7,4.2
			c0.4,1.3,1.1,2.4,2,3.4c0.9,1,2.1,1.8,3.3,2.3c1.6,0.6,3.2,0.9,4.9,0.9c1.7,0,3.3-0.3,4.8-0.9c2.5-1,4.5-3.1,5.3-5.7
			c0.4-1.4,0.7-2.8,0.7-4.2v-3.6c0-1.5-0.2-3-0.7-4.4c-0.4-1.3-1.1-2.5-2-3.6c-0.9-1-2.1-1.9-3.3-2.4c-1.5-0.6-3.2-0.9-4.8-0.9h-0.3
			c-1.6,0-3.1,0.3-4.6,0.9C69.4,12,68.3,12.8,67.4,13.8z M71,16.4c2.6-2.5,6.7-2.5,9.2,0c1.2,1.5,1.9,3.4,1.8,5.3v3.8
			c0.1,1.8-0.5,3.6-1.7,5c-2.6,2.4-6.6,2.4-9.2,0c-1.2-1.4-1.8-3.2-1.7-5v-3.8C69.3,19.8,69.9,18,71,16.4z"/>
		<path class="st2" d="M114.5,10.5c0,0,0,1.3,0,1.7v22.4c0,0.5,0,1.7,0,1.7h4.4v-26L114.5,10.5z"/>
		<path class="st2" d="M125.2,13.6c-0.9,1-1.5,2.1-1.9,3.4c-0.4,1.4-0.6,2.8-0.6,4.2v4.4c0,1.4,0.2,2.9,0.6,4.2
			c0.4,1.2,1,2.4,1.9,3.4c0.9,1,2,1.8,3.2,2.3c1.5,0.6,3.2,0.9,4.8,0.8h0.1c1.4,0,2.9-0.2,4.2-0.7c1.2-0.4,2.3-1.1,3.2-2.1l-2.3-3
			c-0.3,0.1-0.5,0.3-0.8,0.5c-0.6,0.3-1.2,0.6-1.9,0.7c-0.8,0.2-1.7,0.3-2.6,0.3c-1.7,0.1-3.4-0.6-4.6-1.9c-1-1.4-1.6-3.2-1.5-4.9
			v-3.8c-0.1-1.8,0.4-3.5,1.5-4.9c1.1-1.3,2.8-2,4.6-1.9c0.8,0,1.7,0.1,2.5,0.4c0.6,0.2,1.2,0.5,1.8,0.8c0.2,0.1,0.5,0.3,0.7,0.5
			l2.6-3.1c-1-0.9-2.1-1.6-3.3-2.1c-1.3-0.5-2.8-0.7-4.2-0.7h-0.3c-1.5,0-3.1,0.3-4.5,0.9C127.2,11.9,126,12.6,125.2,13.6z"/>
		<path class="st2" d="M187.9,29.7c0.4-1.4,0.7-2.8,0.7-4.2v-3.6c0-1.5-0.2-3-0.7-4.4c-0.4-1.3-1.1-2.5-2-3.6
			c-0.9-1-2.1-1.9-3.3-2.4c-1.5-0.6-3.2-0.9-4.8-0.9h-0.3c-1.6,0-3.1,0.3-4.6,0.9c-1.3,0.5-2.4,1.3-3.3,2.4c-0.9,1-1.6,2.3-2,3.6
			c-0.4,1.4-0.7,2.9-0.6,4.4v3.6c0,1.4,0.2,2.9,0.6,4.2c0.4,1.3,1.1,2.4,2,3.4c0.9,1,2.1,1.8,3.3,2.3c3.1,1.2,6.6,1.2,9.7,0
			C185.1,34.4,187.1,32.3,187.9,29.7z M184.1,21.7v3.8c0.1,1.8-0.5,3.6-1.7,5c-2.6,2.4-6.6,2.4-9.2,0c-1.2-1.4-1.8-3.2-1.7-5v-3.8
			c-0.1-1.9,0.5-3.8,1.6-5.3c2.6-2.5,6.7-2.5,9.2,0C183.6,17.9,184.2,19.8,184.1,21.7L184.1,21.7z"/>
		<path class="st2" d="M210.3,33.8l-7.4-10.2l0.1-0.2l7-9.8l0.3-0.4l-3.5-2.6l-6.6,9.7l-6.6-9.7c-0.1,0-3.5,2.6-3.5,2.6l7.4,10.5
			l-0.1,0.1l-7.4,10.2l3.7,2.5l6.5-9.4l0.1,0.1l6.5,9.4L210.3,33.8z"/>
		<path class="st0" d="M116.9,0.7c-1.6,0-2.9,1.3-2.9,2.9s1.3,2.9,2.9,2.9s2.9-1.3,2.9-2.9S118.4,0.7,116.9,0.7
			C116.9,0.7,116.9,0.7,116.9,0.7z"/>
		<path class="st2" d="M163.9,17.4c-0.4-1.3-1-2.6-1.9-3.6c-0.8-1-1.9-1.8-3-2.4c-1.4-0.6-3-0.9-4.5-0.9c-0.3,0-0.6,0-0.9,0h-0.1
			c-2.2,0.3-4.3,1-6.1,2.2V3.3c0-0.5,0-1.8,0-1.8h-4.5c0,0,0,1.3,0,1.7v23.5c0,1.4,0.2,2.7,0.7,4c0.4,1.2,1.1,2.2,2,3.1
			c1,0.9,2.1,1.6,3.4,2c1.6,0.5,3.2,0.8,4.9,0.7c1.6,0,3.2-0.3,4.6-0.9c1.3-0.6,2.4-1.4,3.3-2.4c0.9-1,1.6-2.3,2-3.6
			c0.4-1.4,0.7-2.9,0.7-4.4v-3C164.6,20.6,164.3,19,163.9,17.4z M158.4,30.3c-1,1.3-2.6,2-4.2,2h-0.5c-1.5,0-3-0.5-4.3-1.3
			c-1.4-0.9-2.2-2.5-2.1-4.1v-6c-0.1-1.7,0.6-3.4,1.9-4.6v0l0,0c1.2-1,2.7-1.5,4.2-1.5c1.8,0,3.5,0.7,4.7,2c1.3,1.5,1.9,3.5,1.8,5.5
			v3.1C160,27.2,159.5,28.9,158.4,30.3z"/>
		<path class="st2" d="M108.8,16c-0.3-1.1-0.9-2-1.7-2.9c-0.8-0.8-1.9-1.5-3-1.9c-1.5-0.5-3-0.8-4.5-0.7c-1.7,0-3.3,0.3-4.9,1
			c-1.3,0.6-2.5,1.5-3.4,2.6c-0.9,1.1-1.6,2.4-2.1,3.8c-0.5,1.5-0.7,3-0.7,4.6v3.1c0,3.4,0.8,6,2.4,7.9c1.7,1.9,4.2,2.9,6.7,2.8
			c1.3,0,2.6-0.3,3.8-0.8h0c1.2-0.5,2.3-1.1,3.3-1.9l0.6-0.5v3.6c0,1.1-0.1,2.2-0.5,3.3c-0.3,0.8-0.8,1.6-1.4,2.2
			c-0.6,0.5-1.3,0.9-2.1,1.1c-0.8,0.2-1.6,0.3-2.4,0.3c-1.1,0-2.1-0.1-3.1-0.2c-0.2,0-0.3-0.1-0.5-0.1l0,0l-2.8-0.6L92,46.3l2.4,0.5
			c0.2,0,0.4,0.1,0.6,0.1l0.2,0.1l0,0c0.1,0,0.3,0.1,0.4,0.1c1.1,0.1,2.2,0.2,3.4,0.2c1.4,0,2.7-0.2,4-0.7c2.5-0.8,4.6-2.7,5.5-5.1
			c0.6-1.5,0.9-3.1,0.8-4.8V19.6C109.4,18.4,109.2,17.2,108.8,16z M105.3,19.4V26c0.1,1.8-0.6,3.5-1.9,4.8v0.1
			c-1.2,1-2.6,1.5-4.2,1.5H99c-4.1,0-6.3-2.3-6.3-6.6v-3.5c0-1,0.2-2,0.5-3c0.3-0.9,0.8-1.7,1.4-2.5c0.6-0.7,1.3-1.3,2.1-1.8
			c0.9-0.4,1.9-0.7,2.8-0.6c1.5-0.1,2.9,0.3,4.1,1.2C104.8,16.5,105.4,17.9,105.3,19.4z"/>
	</g>
</g>
</svg>
