<svg xmlns="http://www.w3.org/2000/svg" viewBox="0 0 137.36 22.16"><defs><style>.cls-1{fill:#314c9a;}</style></defs><g id="Layer_2" data-name="Layer 2"><g id="Layer_1-2" data-name="Layer 1"><circle class="cls-1" cx="135.14" cy="19.91" r="2.22"/><path class="cls-1" d="M4.67,3.82H0V0H13.67V3.82H9V21.59H4.67Z"/><path class="cls-1" d="M12.27,5.57h3.62v2.1a4.59,4.59,0,0,1,4.44-2.59V7.93h-.17c-2.69,0-4.06,2.25-4.06,5v8.63H12.27Z"/><path class="cls-1" d="M57.75,14.92a4.41,4.41,0,0,0,4.65,4,4.11,4.11,0,0,0,3.85-2.16h4a9.05,9.05,0,0,1-3.24,4,8,8,0,0,1-4.59,1.4,8.51,8.51,0,0,1-.06-17,8.17,8.17,0,0,1,6,2.45,8.63,8.63,0,0,1,2.37,7.32ZM66.9,12a4.42,4.42,0,0,0-4.56-3.62A4.34,4.34,0,0,0,57.81,12Z"/><path class="cls-1" d="M79.06,3h-5V0H87.47V3h-5V21.59H79.06Z"/><path class="cls-1" d="M127.88,9.86a2,2,0,0,0-2.31-2.13,2.06,2.06,0,0,0-2.28,2c.06,1.26,1.2,1.84,2.89,2.31,2.43.67,5.09,1.37,5.17,4.78.06,3.1-2.51,5.2-5.66,5.2-2.52,0-5.64-1.43-5.79-5h3a2.66,2.66,0,0,0,2.8,2.57,2.45,2.45,0,0,0,2.6-2.37c0-1.57-1.22-2.1-4.06-3-2.22-.67-4-1.72-4-4.11,0-3,2.46-4.82,5.35-4.82,2.19,0,5.05,1.08,5.29,4.61Z"/><polygon class="cls-1" points="113.56 12.69 120.63 5.72 116.95 5.72 110.73 11.99 110.73 0 107.66 0 107.66 2.76 108.67 2.76 108.67 18.83 107.66 18.83 107.66 21.59 110.73 21.59 110.73 13.42 117.3 21.59 120.84 21.59 113.56 12.69"/><polygon class="cls-1" points="104.87 2.76 105.94 2.76 105.94 0 102.9 0 102.9 21.59 105.94 21.59 105.94 18.83 104.87 18.83 104.87 2.76"/><path class="cls-1" d="M49.56,0V7.64a6.25,6.25,0,0,0-5.37-2.56,7.86,7.86,0,0,0-7.74,6L40,17.28H36.87a7.77,7.77,0,0,0,7.37,4.81c3.28,0,4.79-1.61,5.5-2.8v2.3h3.65V0ZM48.42,17a5,5,0,0,1-3.56,1.46A4.78,4.78,0,0,1,40,13.57v0a4.79,4.79,0,0,1,4.94-4.9A4.84,4.84,0,0,1,48.36,10a4.69,4.69,0,0,1,1.43,3.44A4.67,4.67,0,0,1,48.42,17Z"/><path class="cls-1" d="M36.44,11V5.56H32.61V7.89a6,6,0,0,0-5.4-2.83,8.11,8.11,0,0,0-8.15,8.49c0,4.53,3,8.52,8.15,8.52l.56,0,0,0a8.18,8.18,0,0,0,7.82-4.79H32.86ZM32,16a4.56,4.56,0,0,1-4.27,2.56,4.81,4.81,0,0,1-4.88-4.87v0a4.83,4.83,0,0,1,4.85-5,4.71,4.71,0,0,1,4.47,2.83,5,5,0,0,1,.44,2.25A5.51,5.51,0,0,1,32,16Z"/><path class="cls-1" d="M98.19,5.72v2.8a6.4,6.4,0,0,0-5.9-3.27,8.09,8.09,0,0,0-8.15,8.41c0,4.43,3,8.4,8.15,8.4a6.42,6.42,0,0,0,5.9-3.24v2.77h3V5.72Zm-5.65,13.2h0a5.43,5.43,0,0,1-4.22-9.13,5.43,5.43,0,0,1,7.91,7.43l1.64,1.54Z"/><circle class="cls-1" cx="89.98" cy="13.33" r="0.8"/><circle class="cls-1" cx="92.36" cy="13.33" r="0.8"/><circle class="cls-1" cx="94.73" cy="13.33" r="0.8"/></g></g></svg>